<?xml version="1.0" encoding="utf-8" standalone="no"?>
<!DOCTYPE svg PUBLIC "-//W3C//DTD SVG 1.1//EN"
  "http://www.w3.org/Graphics/SVG/1.1/DTD/svg11.dtd">
<svg xmlns:xlink="http://www.w3.org/1999/xlink" width="460.8pt" height="345.6pt" viewBox="0 0 460.8 345.6" xmlns="http://www.w3.org/2000/svg" version="1.1">
 <metadata>
  <rdf:RDF xmlns:dc="http://purl.org/dc/elements/1.1/" xmlns:cc="http://creativecommons.org/ns#" xmlns:rdf="http://www.w3.org/1999/02/22-rdf-syntax-ns#">
   <cc:Work>
    <dc:type rdf:resource="http://purl.org/dc/dcmitype/StillImage"/>
    <dc:date>2022-10-03T13:34:25.652016</dc:date>
    <dc:format>image/svg+xml</dc:format>
    <dc:creator>
     <cc:Agent>
      <dc:title>Matplotlib v3.5.3, https://matplotlib.org/</dc:title>
     </cc:Agent>
    </dc:creator>
   </cc:Work>
  </rdf:RDF>
 </metadata>
 <defs>
  <style type="text/css">*{stroke-linejoin: round; stroke-linecap: butt}</style>
 </defs>
 <g id="figure_1">
  <g id="patch_1">
   <path d="M 0 345.6 
L 460.8 345.6 
L 460.8 0 
L 0 0 
z
" style="fill: #ffffff"/>
  </g>
  <g id="axes_1">
   <g id="patch_2">
    <path d="M 57.6 307.584 
L 414.72 307.584 
L 414.72 41.472 
L 57.6 41.472 
z
" style="fill: #ffffff"/>
   </g>
   <g id="matplotlib.axis_1">
    <g id="xtick_1">
     <g id="line2d_1">
      <defs>
       <path id="mbd44807d6f" d="M 0 0 
L 0 3.5 
" style="stroke: #000000; stroke-width: 0.8"/>
      </defs>
      <g>
       <use xlink:href="#mbd44807d6f" x="73.832727" y="307.584" style="stroke: #000000; stroke-width: 0.8"/>
      </g>
     </g>
     <g id="text_1">
      <!-- 0 -->
      <g transform="translate(70.651477 322.182437)scale(0.1 -0.1)">
       <defs>
        <path id="DejaVuSans-30" d="M 2034 4250 
Q 1547 4250 1301 3770 
Q 1056 3291 1056 2328 
Q 1056 1369 1301 889 
Q 1547 409 2034 409 
Q 2525 409 2770 889 
Q 3016 1369 3016 2328 
Q 3016 3291 2770 3770 
Q 2525 4250 2034 4250 
z
M 2034 4750 
Q 2819 4750 3233 4129 
Q 3647 3509 3647 2328 
Q 3647 1150 3233 529 
Q 2819 -91 2034 -91 
Q 1250 -91 836 529 
Q 422 1150 422 2328 
Q 422 3509 836 4129 
Q 1250 4750 2034 4750 
z
" transform="scale(0.015625)"/>
       </defs>
       <use xlink:href="#DejaVuSans-30"/>
      </g>
     </g>
    </g>
    <g id="xtick_2">
     <g id="line2d_2">
      <g>
       <use xlink:href="#mbd44807d6f" x="114.721209" y="307.584" style="stroke: #000000; stroke-width: 0.8"/>
      </g>
     </g>
     <g id="text_2">
      <!-- 50 -->
      <g transform="translate(108.358709 322.182437)scale(0.1 -0.1)">
       <defs>
        <path id="DejaVuSans-35" d="M 691 4666 
L 3169 4666 
L 3169 4134 
L 1269 4134 
L 1269 2991 
Q 1406 3038 1543 3061 
Q 1681 3084 1819 3084 
Q 2600 3084 3056 2656 
Q 3513 2228 3513 1497 
Q 3513 744 3044 326 
Q 2575 -91 1722 -91 
Q 1428 -91 1123 -41 
Q 819 9 494 109 
L 494 744 
Q 775 591 1075 516 
Q 1375 441 1709 441 
Q 2250 441 2565 725 
Q 2881 1009 2881 1497 
Q 2881 1984 2565 2268 
Q 2250 2553 1709 2553 
Q 1456 2553 1204 2497 
Q 953 2441 691 2322 
L 691 4666 
z
" transform="scale(0.015625)"/>
       </defs>
       <use xlink:href="#DejaVuSans-35"/>
       <use xlink:href="#DejaVuSans-30" x="63.623047"/>
      </g>
     </g>
    </g>
    <g id="xtick_3">
     <g id="line2d_3">
      <g>
       <use xlink:href="#mbd44807d6f" x="155.609691" y="307.584" style="stroke: #000000; stroke-width: 0.8"/>
      </g>
     </g>
     <g id="text_3">
      <!-- 100 -->
      <g transform="translate(146.065941 322.182437)scale(0.1 -0.1)">
       <defs>
        <path id="DejaVuSans-31" d="M 794 531 
L 1825 531 
L 1825 4091 
L 703 3866 
L 703 4441 
L 1819 4666 
L 2450 4666 
L 2450 531 
L 3481 531 
L 3481 0 
L 794 0 
L 794 531 
z
" transform="scale(0.015625)"/>
       </defs>
       <use xlink:href="#DejaVuSans-31"/>
       <use xlink:href="#DejaVuSans-30" x="63.623047"/>
       <use xlink:href="#DejaVuSans-30" x="127.246094"/>
      </g>
     </g>
    </g>
    <g id="xtick_4">
     <g id="line2d_4">
      <g>
       <use xlink:href="#mbd44807d6f" x="196.498173" y="307.584" style="stroke: #000000; stroke-width: 0.8"/>
      </g>
     </g>
     <g id="text_4">
      <!-- 150 -->
      <g transform="translate(186.954423 322.182437)scale(0.1 -0.1)">
       <use xlink:href="#DejaVuSans-31"/>
       <use xlink:href="#DejaVuSans-35" x="63.623047"/>
       <use xlink:href="#DejaVuSans-30" x="127.246094"/>
      </g>
     </g>
    </g>
    <g id="xtick_5">
     <g id="line2d_5">
      <g>
       <use xlink:href="#mbd44807d6f" x="237.386654" y="307.584" style="stroke: #000000; stroke-width: 0.8"/>
      </g>
     </g>
     <g id="text_5">
      <!-- 200 -->
      <g transform="translate(227.842904 322.182437)scale(0.1 -0.1)">
       <defs>
        <path id="DejaVuSans-32" d="M 1228 531 
L 3431 531 
L 3431 0 
L 469 0 
L 469 531 
Q 828 903 1448 1529 
Q 2069 2156 2228 2338 
Q 2531 2678 2651 2914 
Q 2772 3150 2772 3378 
Q 2772 3750 2511 3984 
Q 2250 4219 1831 4219 
Q 1534 4219 1204 4116 
Q 875 4013 500 3803 
L 500 4441 
Q 881 4594 1212 4672 
Q 1544 4750 1819 4750 
Q 2544 4750 2975 4387 
Q 3406 4025 3406 3419 
Q 3406 3131 3298 2873 
Q 3191 2616 2906 2266 
Q 2828 2175 2409 1742 
Q 1991 1309 1228 531 
z
" transform="scale(0.015625)"/>
       </defs>
       <use xlink:href="#DejaVuSans-32"/>
       <use xlink:href="#DejaVuSans-30" x="63.623047"/>
       <use xlink:href="#DejaVuSans-30" x="127.246094"/>
      </g>
     </g>
    </g>
    <g id="xtick_6">
     <g id="line2d_6">
      <g>
       <use xlink:href="#mbd44807d6f" x="278.275136" y="307.584" style="stroke: #000000; stroke-width: 0.8"/>
      </g>
     </g>
     <g id="text_6">
      <!-- 250 -->
      <g transform="translate(268.731386 322.182437)scale(0.1 -0.1)">
       <use xlink:href="#DejaVuSans-32"/>
       <use xlink:href="#DejaVuSans-35" x="63.623047"/>
       <use xlink:href="#DejaVuSans-30" x="127.246094"/>
      </g>
     </g>
    </g>
    <g id="xtick_7">
     <g id="line2d_7">
      <g>
       <use xlink:href="#mbd44807d6f" x="319.163618" y="307.584" style="stroke: #000000; stroke-width: 0.8"/>
      </g>
     </g>
     <g id="text_7">
      <!-- 300 -->
      <g transform="translate(309.619868 322.182437)scale(0.1 -0.1)">
       <defs>
        <path id="DejaVuSans-33" d="M 2597 2516 
Q 3050 2419 3304 2112 
Q 3559 1806 3559 1356 
Q 3559 666 3084 287 
Q 2609 -91 1734 -91 
Q 1441 -91 1130 -33 
Q 819 25 488 141 
L 488 750 
Q 750 597 1062 519 
Q 1375 441 1716 441 
Q 2309 441 2620 675 
Q 2931 909 2931 1356 
Q 2931 1769 2642 2001 
Q 2353 2234 1838 2234 
L 1294 2234 
L 1294 2753 
L 1863 2753 
Q 2328 2753 2575 2939 
Q 2822 3125 2822 3475 
Q 2822 3834 2567 4026 
Q 2313 4219 1838 4219 
Q 1578 4219 1281 4162 
Q 984 4106 628 3988 
L 628 4550 
Q 988 4650 1302 4700 
Q 1616 4750 1894 4750 
Q 2613 4750 3031 4423 
Q 3450 4097 3450 3541 
Q 3450 3153 3228 2886 
Q 3006 2619 2597 2516 
z
" transform="scale(0.015625)"/>
       </defs>
       <use xlink:href="#DejaVuSans-33"/>
       <use xlink:href="#DejaVuSans-30" x="63.623047"/>
       <use xlink:href="#DejaVuSans-30" x="127.246094"/>
      </g>
     </g>
    </g>
    <g id="xtick_8">
     <g id="line2d_8">
      <g>
       <use xlink:href="#mbd44807d6f" x="360.0521" y="307.584" style="stroke: #000000; stroke-width: 0.8"/>
      </g>
     </g>
     <g id="text_8">
      <!-- 350 -->
      <g transform="translate(350.50835 322.182437)scale(0.1 -0.1)">
       <use xlink:href="#DejaVuSans-33"/>
       <use xlink:href="#DejaVuSans-35" x="63.623047"/>
       <use xlink:href="#DejaVuSans-30" x="127.246094"/>
      </g>
     </g>
    </g>
    <g id="xtick_9">
     <g id="line2d_9">
      <g>
       <use xlink:href="#mbd44807d6f" x="400.940582" y="307.584" style="stroke: #000000; stroke-width: 0.8"/>
      </g>
     </g>
     <g id="text_9">
      <!-- 400 -->
      <g transform="translate(391.396832 322.182437)scale(0.1 -0.1)">
       <defs>
        <path id="DejaVuSans-34" d="M 2419 4116 
L 825 1625 
L 2419 1625 
L 2419 4116 
z
M 2253 4666 
L 3047 4666 
L 3047 1625 
L 3713 1625 
L 3713 1100 
L 3047 1100 
L 3047 0 
L 2419 0 
L 2419 1100 
L 313 1100 
L 313 1709 
L 2253 4666 
z
" transform="scale(0.015625)"/>
       </defs>
       <use xlink:href="#DejaVuSans-34"/>
       <use xlink:href="#DejaVuSans-30" x="63.623047"/>
       <use xlink:href="#DejaVuSans-30" x="127.246094"/>
      </g>
     </g>
    </g>
   </g>
   <g id="matplotlib.axis_2">
    <g id="ytick_1">
     <g id="line2d_10">
      <defs>
       <path id="ma4a0f8bd17" d="M 0 0 
L -3.5 0 
" style="stroke: #000000; stroke-width: 0.8"/>
      </defs>
      <g>
       <use xlink:href="#ma4a0f8bd17" x="57.6" y="277.411123" style="stroke: #000000; stroke-width: 0.8"/>
      </g>
     </g>
     <g id="text_10">
      <!-- 0.002 -->
      <g transform="translate(21.971875 281.210342)scale(0.1 -0.1)">
       <defs>
        <path id="DejaVuSans-2e" d="M 684 794 
L 1344 794 
L 1344 0 
L 684 0 
L 684 794 
z
" transform="scale(0.015625)"/>
       </defs>
       <use xlink:href="#DejaVuSans-30"/>
       <use xlink:href="#DejaVuSans-2e" x="63.623047"/>
       <use xlink:href="#DejaVuSans-30" x="95.410156"/>
       <use xlink:href="#DejaVuSans-30" x="159.033203"/>
       <use xlink:href="#DejaVuSans-32" x="222.65625"/>
      </g>
     </g>
    </g>
    <g id="ytick_2">
     <g id="line2d_11">
      <g>
       <use xlink:href="#ma4a0f8bd17" x="57.6" y="239.345171" style="stroke: #000000; stroke-width: 0.8"/>
      </g>
     </g>
     <g id="text_11">
      <!-- 0.004 -->
      <g transform="translate(21.971875 243.14439)scale(0.1 -0.1)">
       <use xlink:href="#DejaVuSans-30"/>
       <use xlink:href="#DejaVuSans-2e" x="63.623047"/>
       <use xlink:href="#DejaVuSans-30" x="95.410156"/>
       <use xlink:href="#DejaVuSans-30" x="159.033203"/>
       <use xlink:href="#DejaVuSans-34" x="222.65625"/>
      </g>
     </g>
    </g>
    <g id="ytick_3">
     <g id="line2d_12">
      <g>
       <use xlink:href="#ma4a0f8bd17" x="57.6" y="201.279219" style="stroke: #000000; stroke-width: 0.8"/>
      </g>
     </g>
     <g id="text_12">
      <!-- 0.006 -->
      <g transform="translate(21.971875 205.078438)scale(0.1 -0.1)">
       <defs>
        <path id="DejaVuSans-36" d="M 2113 2584 
Q 1688 2584 1439 2293 
Q 1191 2003 1191 1497 
Q 1191 994 1439 701 
Q 1688 409 2113 409 
Q 2538 409 2786 701 
Q 3034 994 3034 1497 
Q 3034 2003 2786 2293 
Q 2538 2584 2113 2584 
z
M 3366 4563 
L 3366 3988 
Q 3128 4100 2886 4159 
Q 2644 4219 2406 4219 
Q 1781 4219 1451 3797 
Q 1122 3375 1075 2522 
Q 1259 2794 1537 2939 
Q 1816 3084 2150 3084 
Q 2853 3084 3261 2657 
Q 3669 2231 3669 1497 
Q 3669 778 3244 343 
Q 2819 -91 2113 -91 
Q 1303 -91 875 529 
Q 447 1150 447 2328 
Q 447 3434 972 4092 
Q 1497 4750 2381 4750 
Q 2619 4750 2861 4703 
Q 3103 4656 3366 4563 
z
" transform="scale(0.015625)"/>
       </defs>
       <use xlink:href="#DejaVuSans-30"/>
       <use xlink:href="#DejaVuSans-2e" x="63.623047"/>
       <use xlink:href="#DejaVuSans-30" x="95.410156"/>
       <use xlink:href="#DejaVuSans-30" x="159.033203"/>
       <use xlink:href="#DejaVuSans-36" x="222.65625"/>
      </g>
     </g>
    </g>
    <g id="ytick_4">
     <g id="line2d_13">
      <g>
       <use xlink:href="#ma4a0f8bd17" x="57.6" y="163.213267" style="stroke: #000000; stroke-width: 0.8"/>
      </g>
     </g>
     <g id="text_13">
      <!-- 0.008 -->
      <g transform="translate(21.971875 167.012485)scale(0.1 -0.1)">
       <defs>
        <path id="DejaVuSans-38" d="M 2034 2216 
Q 1584 2216 1326 1975 
Q 1069 1734 1069 1313 
Q 1069 891 1326 650 
Q 1584 409 2034 409 
Q 2484 409 2743 651 
Q 3003 894 3003 1313 
Q 3003 1734 2745 1975 
Q 2488 2216 2034 2216 
z
M 1403 2484 
Q 997 2584 770 2862 
Q 544 3141 544 3541 
Q 544 4100 942 4425 
Q 1341 4750 2034 4750 
Q 2731 4750 3128 4425 
Q 3525 4100 3525 3541 
Q 3525 3141 3298 2862 
Q 3072 2584 2669 2484 
Q 3125 2378 3379 2068 
Q 3634 1759 3634 1313 
Q 3634 634 3220 271 
Q 2806 -91 2034 -91 
Q 1263 -91 848 271 
Q 434 634 434 1313 
Q 434 1759 690 2068 
Q 947 2378 1403 2484 
z
M 1172 3481 
Q 1172 3119 1398 2916 
Q 1625 2713 2034 2713 
Q 2441 2713 2670 2916 
Q 2900 3119 2900 3481 
Q 2900 3844 2670 4047 
Q 2441 4250 2034 4250 
Q 1625 4250 1398 4047 
Q 1172 3844 1172 3481 
z
" transform="scale(0.015625)"/>
       </defs>
       <use xlink:href="#DejaVuSans-30"/>
       <use xlink:href="#DejaVuSans-2e" x="63.623047"/>
       <use xlink:href="#DejaVuSans-30" x="95.410156"/>
       <use xlink:href="#DejaVuSans-30" x="159.033203"/>
       <use xlink:href="#DejaVuSans-38" x="222.65625"/>
      </g>
     </g>
    </g>
    <g id="ytick_5">
     <g id="line2d_14">
      <g>
       <use xlink:href="#ma4a0f8bd17" x="57.6" y="125.147314" style="stroke: #000000; stroke-width: 0.8"/>
      </g>
     </g>
     <g id="text_14">
      <!-- 0.010 -->
      <g transform="translate(21.971875 128.946533)scale(0.1 -0.1)">
       <use xlink:href="#DejaVuSans-30"/>
       <use xlink:href="#DejaVuSans-2e" x="63.623047"/>
       <use xlink:href="#DejaVuSans-30" x="95.410156"/>
       <use xlink:href="#DejaVuSans-31" x="159.033203"/>
       <use xlink:href="#DejaVuSans-30" x="222.65625"/>
      </g>
     </g>
    </g>
    <g id="ytick_6">
     <g id="line2d_15">
      <g>
       <use xlink:href="#ma4a0f8bd17" x="57.6" y="87.081362" style="stroke: #000000; stroke-width: 0.8"/>
      </g>
     </g>
     <g id="text_15">
      <!-- 0.012 -->
      <g transform="translate(21.971875 90.880581)scale(0.1 -0.1)">
       <use xlink:href="#DejaVuSans-30"/>
       <use xlink:href="#DejaVuSans-2e" x="63.623047"/>
       <use xlink:href="#DejaVuSans-30" x="95.410156"/>
       <use xlink:href="#DejaVuSans-31" x="159.033203"/>
       <use xlink:href="#DejaVuSans-32" x="222.65625"/>
      </g>
     </g>
    </g>
    <g id="ytick_7">
     <g id="line2d_16">
      <g>
       <use xlink:href="#ma4a0f8bd17" x="57.6" y="49.01541" style="stroke: #000000; stroke-width: 0.8"/>
      </g>
     </g>
     <g id="text_16">
      <!-- 0.014 -->
      <g transform="translate(21.971875 52.814628)scale(0.1 -0.1)">
       <use xlink:href="#DejaVuSans-30"/>
       <use xlink:href="#DejaVuSans-2e" x="63.623047"/>
       <use xlink:href="#DejaVuSans-30" x="95.410156"/>
       <use xlink:href="#DejaVuSans-31" x="159.033203"/>
       <use xlink:href="#DejaVuSans-34" x="222.65625"/>
      </g>
     </g>
    </g>
   </g>
   <g id="line2d_17">
    <path d="M 73.832727 277.967496 
L 74.650497 281.366319 
L 75.468267 281.130353 
L 76.286036 280.594891 
L 77.103806 281.411697 
L 77.921575 278.380437 
L 78.739345 278.325983 
L 79.557115 277.37758 
L 80.374884 272.898756 
L 81.192654 275.480773 
L 82.010424 281.09405 
L 82.828193 281.992538 
L 83.645963 282.700437 
L 84.463733 280.295395 
L 85.281502 280.531361 
L 86.099272 283.916571 
L 86.917041 279.927832 
L 87.734811 280.309008 
L 88.552581 277.913042 
L 89.37035 281.924471 
L 90.18812 277.985647 
L 91.00589 277.227832 
L 91.823659 277.282286 
L 92.641429 281.942622 
L 93.459199 281.039597 
L 94.276968 281.847328 
L 95.094738 275.61237 
L 95.912507 279.201782 
L 96.730277 231.836067 
L 97.548047 283.21321 
L 98.365816 272.62195 
L 99.183586 283.902958 
L 100.001356 279.950521 
L 101.636895 280.286319 
L 102.454665 281.207496 
L 103.272434 282.972706 
L 104.090204 277.295899 
L 104.907973 280.463294 
L 105.725743 278.375899 
L 106.543513 278.634555 
L 107.361282 280.535899 
L 108.179052 283.054387 
L 108.996822 277.395731 
L 109.814591 282.518924 
L 110.632361 280.236403 
L 111.450131 278.865983 
L 112.2679 276.701445 
L 113.08567 277.445647 
L 113.903439 280.395227 
L 114.721209 280.853546 
L 115.538979 281.066824 
L 116.356748 283.467328 
L 117.992288 280.581277 
L 118.810057 276.560773 
L 119.627827 282.541613 
L 120.445597 280.018588 
L 121.263366 278.158084 
L 122.081136 277.064471 
L 122.898905 281.40716 
L 123.716675 282.400941 
L 124.534445 279.941445 
L 125.352214 280.073042 
L 126.169984 279.419597 
L 126.987754 278.39405 
L 127.805523 282.845647 
L 128.623293 277.999261 
L 129.441063 281.597748 
L 130.258832 278.816067 
L 131.076602 280.522286 
L 131.894371 279.111025 
L 133.529911 280.672034 
L 134.34768 277.826824 
L 135.98322 281.910857 
L 136.800989 279.097412 
L 137.618759 281.280101 
L 138.436529 272.340605 
L 139.254298 284.134387 
L 140.072068 281.783798 
L 140.889837 279.002118 
L 141.707607 279.669176 
L 142.525377 279.133714 
L 143.343146 281.956235 
L 144.160916 281.066824 
L 144.978686 276.946487 
L 145.796455 278.738924 
L 146.614225 279.950521 
L 147.431995 281.711193 
L 148.249764 280.136571 
L 149.067534 282.900101 
L 149.885303 280.26363 
L 150.703073 281.470689 
L 152.338612 278.266992 
L 153.156382 281.275563 
L 153.974152 281.502454 
L 154.791921 277.477412 
L 155.609691 280.849008 
L 156.42746 278.448504 
L 157.24523 281.929008 
L 158.063 279.047496 
L 158.880769 280.703798 
L 159.698539 279.306151 
L 160.516309 277.436571 
L 161.334078 278.035563 
L 162.151848 281.271025 
L 162.969618 280.390689 
L 163.787387 280.07758 
L 164.605157 282.573378 
L 165.422926 277.940269 
L 166.240696 283.117916 
L 167.058466 281.416235 
L 167.876235 282.210353 
L 168.694005 286.457748 
L 169.511775 277.500101 
L 170.329544 276.383798 
L 171.147314 279.601109 
L 171.965084 279.47405 
L 172.782853 279.033882 
L 173.600623 278.189849 
L 174.418392 279.832538 
L 175.236162 275.834723 
L 176.053932 279.206319 
L 176.871701 279.170017 
L 177.689471 276.715059 
L 178.507241 277.186992 
L 179.32501 53.568 
L 180.14278 286.317076 
L 180.96055 285.218924 
L 181.778319 284.497412 
L 182.596089 280.61758 
L 183.413858 280.939765 
L 184.231628 284.329513 
L 185.049398 280.844471 
L 185.867167 292.098252 
L 186.684937 282.310185 
L 187.502707 275.244807 
L 188.320476 280.454218 
L 189.138246 281.239261 
L 189.956016 280.681109 
L 190.773785 281.107664 
L 192.409324 279.519429 
L 193.227094 280.340773 
L 194.044864 280.363462 
L 194.862633 281.107664 
L 195.680403 279.737244 
L 196.498173 283.376571 
L 197.315942 280.549513 
L 198.133712 282.482622 
L 198.951482 280.603966 
L 199.769251 281.184807 
L 200.587021 279.882454 
L 201.40479 234.055059 
L 202.22256 272.640101 
L 203.04033 281.189345 
L 203.858099 280.749176 
L 204.675869 282.614218 
L 205.493639 286.498588 
L 207.129178 284.129849 
L 208.764717 285.032874 
L 209.582487 289.920101 
L 210.400256 278.684471 
L 211.218026 280.558588 
L 212.035796 282.732202 
L 212.853565 283.639765 
L 213.671335 285.958588 
L 214.489105 284.796908 
L 215.306874 287.161109 
L 216.124644 286.41237 
L 216.942414 283.694218 
L 217.760183 281.901782 
L 218.577953 279.10195 
L 219.395722 281.330017 
L 220.213492 285.04195 
L 221.031262 278.008336 
L 221.849031 280.395227 
L 222.666801 278.085479 
L 223.484571 280.65842 
L 224.30234 276.061613 
L 225.12011 283.571697 
L 225.93788 276.882958 
L 226.755649 282.48716 
L 227.573419 282.346487 
L 228.391188 280.426992 
L 229.208958 281.366319 
L 230.026728 284.429345 
L 230.844497 283.925647 
L 231.662267 280.971529 
L 232.480037 282.945479 
L 233.297806 284.29321 
L 234.115576 286.190017 
L 234.933346 281.461613 
L 235.751115 279.619261 
L 236.568885 285.890521 
L 237.386654 285.318756 
L 238.204424 281.320941 
L 239.022194 279.288 
L 239.839963 281.924471 
L 240.657733 278.39405 
L 241.475503 285.18716 
L 242.293272 275.793882 
L 243.111042 282.695899 
L 243.928812 285.758924 
L 244.746581 283.662454 
L 245.564351 282.160437 
L 246.38212 279.773546 
L 247.19989 279.673714 
L 248.01766 278.616403 
L 248.835429 279.823462 
L 249.653199 282.641445 
L 250.470969 278.053714 
L 251.288738 281.075899 
L 252.106508 278.979429 
L 252.924278 279.265311 
L 253.742047 281.180269 
L 254.559817 278.212538 
L 255.377586 277.949345 
L 257.013126 282.859261 
L 257.830895 281.547832 
L 258.648665 282.518924 
L 259.466435 282.605143 
L 260.284204 273.062118 
L 261.101974 277.849513 
L 261.919744 280.635731 
L 262.737513 285.341445 
L 263.555283 293.341613 
L 264.373052 279.555731 
L 265.190822 280.744639 
L 266.008592 278.652706 
L 266.826361 280.622118 
L 267.644131 278.153546 
L 268.461901 280.495059 
L 269.27967 273.583966 
L 270.09744 277.196067 
L 270.91521 271.006487 
L 271.732979 278.226151 
L 272.550749 278.875059 
L 273.368518 285.949513 
L 274.186288 277.445647 
L 275.004058 277.758756 
L 275.821827 280.531361 
L 276.639597 281.461613 
L 277.457367 284.733378 
L 278.275136 281.266487 
L 279.092906 286.929681 
L 279.910676 279.982286 
L 280.728445 285.944975 
L 281.546215 279.43321 
L 282.363984 279.660101 
L 283.181754 279.369681 
L 283.999524 279.53758 
L 284.817293 281.125815 
L 285.635063 278.271529 
L 286.452833 282.264807 
L 287.270602 278.979429 
L 288.088372 278.185311 
L 288.906142 276.842118 
L 289.723911 277.749681 
L 290.541681 295.488 
L 291.35945 278.375899 
L 292.17722 279.719092 
L 292.99499 272.717244 
L 293.812759 280.640269 
L 294.630529 276.778588 
L 295.448299 282.09237 
L 296.266068 278.235227 
L 297.083838 279.405983 
L 297.901608 282.505311 
L 298.719377 266.164639 
L 299.537147 278.952202 
L 300.354916 281.398084 
L 301.172686 287.152034 
L 301.990456 267.743798 
L 302.808225 279.333378 
L 303.625995 280.608504 
L 304.443765 281.125815 
L 305.261534 277.804134 
L 306.079304 240.01321 
L 306.897074 273.529513 
L 307.714843 279.959597 
L 308.532613 278.797916 
L 309.350382 280.240941 
L 310.168152 280.372538 
L 310.985922 285.241613 
L 311.803691 287.111193 
L 313.439231 277.62716 
L 314.257 279.224471 
L 315.07477 280.431529 
L 315.89254 278.407664 
L 316.710309 280.926151 
L 317.528079 280.150185 
L 318.345848 278.362286 
L 319.163618 279.324303 
L 319.981388 280.068504 
L 320.799157 278.757076 
L 321.616927 283.090689 
L 322.434697 281.815563 
L 323.252466 281.652202 
L 324.070236 276.519933 
L 324.888005 281.089513 
L 325.705775 268.419933 
L 326.523545 282.518924 
L 327.341314 277.690689 
L 328.159084 283.231361 
L 328.976854 285.264303 
L 329.794623 276.783126 
L 330.612393 281.039597 
L 331.430163 278.952202 
L 332.247932 280.032202 
L 333.065702 284.633546 
L 333.883471 279.764471 
L 334.701241 281.121277 
L 335.519011 280.354387 
L 336.33678 280.572202 
L 337.15455 282.151361 
L 337.97232 280.908 
L 338.790089 290.786824 
L 339.607859 279.369681 
L 340.425629 284.688 
L 341.243398 277.141613 
L 342.061168 280.399765 
L 342.878937 280.309008 
L 343.696707 278.93405 
L 344.514477 276.601613 
L 345.332246 285.963126 
L 346.150016 278.761613 
L 346.967786 282.768504 
L 347.785555 281.69758 
L 348.603325 281.475227 
L 349.421095 278.652706 
L 350.238864 277.350353 
L 351.056634 278.988504 
L 351.874403 282.968168 
L 352.692173 283.671529 
L 353.509943 280.613042 
L 354.327712 279.596571 
L 355.145482 280.01405 
L 355.963252 279.337916 
L 356.781021 293.359765 
L 357.598791 274.273714 
L 358.416561 279.378756 
L 360.0521 281.565983 
L 360.869869 278.689008 
L 361.687639 280.712874 
L 362.505409 281.389008 
L 363.323178 277.70884 
L 364.140948 279.510353 
L 364.958718 278.816067 
L 365.776487 278.70716 
L 366.594257 281.357244 
L 367.412027 279.769008 
L 368.229796 272.753546 
L 369.047566 280.898924 
L 369.865335 281.393546 
L 370.683105 279.673714 
L 371.500875 280.368 
L 372.318644 280.80363 
L 373.136414 280.672034 
L 373.954184 281.148504 
L 374.771953 285.822454 
L 375.589723 295.242958 
L 376.407493 283.735059 
L 377.225262 281.879092 
L 378.043032 279.596571 
L 378.860801 281.824639 
L 379.678571 279.424134 
L 380.496341 278.108168 
L 381.31411 283.068 
L 382.13188 278.875059 
L 382.94965 281.656739 
L 383.767419 281.420773 
L 384.585189 294.294555 
L 385.402959 285.427664 
L 386.220728 285.178084 
L 387.038498 286.103798 
L 387.856267 283.889345 
L 388.674037 278.875059 
L 389.491807 283.113378 
L 390.309576 285.58195 
L 391.127346 284.756067 
L 391.945116 283.748672 
L 392.762885 281.978924 
L 393.580655 282.119597 
L 394.398425 281.575059 
L 395.216194 279.941445 
L 396.033964 281.239261 
L 396.851733 283.716908 
L 397.669503 277.554555 
L 398.487273 280.368 
L 398.487273 280.368 
" clip-path="url(#p8917405754)" style="fill: none; stroke: #1f77b4; stroke-width: 1.5; stroke-linecap: square"/>
   </g>
   <g id="patch_3">
    <path d="M 57.6 307.584 
L 57.6 41.472 
" style="fill: none; stroke: #000000; stroke-width: 0.8; stroke-linejoin: miter; stroke-linecap: square"/>
   </g>
   <g id="patch_4">
    <path d="M 414.72 307.584 
L 414.72 41.472 
" style="fill: none; stroke: #000000; stroke-width: 0.8; stroke-linejoin: miter; stroke-linecap: square"/>
   </g>
   <g id="patch_5">
    <path d="M 57.6 307.584 
L 414.72 307.584 
" style="fill: none; stroke: #000000; stroke-width: 0.8; stroke-linejoin: miter; stroke-linecap: square"/>
   </g>
   <g id="patch_6">
    <path d="M 57.6 41.472 
L 414.72 41.472 
" style="fill: none; stroke: #000000; stroke-width: 0.8; stroke-linejoin: miter; stroke-linecap: square"/>
   </g>
  </g>
 </g>
 <defs>
  <clipPath id="p8917405754">
   <rect x="57.6" y="41.472" width="357.12" height="266.112"/>
  </clipPath>
 </defs>
</svg>
